<?xml version="1.0" encoding="utf-8"?>
<!DOCTYPE svg PUBLIC "-//W3C//DTD SVG 1.0//EN" "http://www.w3.org/TR/2001/REC-SVG-20010904/DTD/svg10.dtd">
<svg version="1.0" xmlns="http://www.w3.org/2000/svg" width="512px" height="512px" viewBox="0 0 512 512" preserveAspectRatio="xMidYMid meet">
 <g fill="#211f97">
  <path d="M193.8 398.6 c-7.8 -1.7 -10.5 -4.4 -11.4 -11.3 l-0.6 -5.4 -3.2 0.8 c-3.8 1 -29.7 0.9 -34.9 -0.2 -8.6 -1.7 -11.5 -12.6 -6.2 -23.1 2.1 -4.1 2.3 -5.3 1.4 -7.6 -1.9 -4.8 -0.6 -27.2 2 -33.9 2.5 -6.5 8.4 -16 13.4 -21.6 3.3 -3.7 3.5 -4.1 4.2 -14.8 0.4 -6 1.3 -13.1 2 -15.7 1 -3.9 1 -4.8 -0.1 -4.8 -2.9 0 -5.4 -5.1 -5.4 -11.1 0 -5 -0.3 -5.9 -1.8 -5.9 -2.5 0 -6 -4 -7.2 -8.1 -1.3 -4.3 -1.2 -11.2 0 -16.7 0.9 -3.7 0.8 -4.6 -1.2 -7.3 -2 -2.7 -2.3 -4.2 -2.1 -11.2 0.1 -8.8 1.6 -13.6 5.5 -17.7 1.9 -2.2 2.2 -3.4 2 -8.1 -0.5 -7.6 1.2 -13.1 5.3 -17.5 3.1 -3.2 3.5 -4.3 3.5 -9 0 -4.5 0.4 -5.5 2.7 -7.4 1.5 -1.2 4 -2.4 5.5 -2.7 2.5 -0.5 2.8 -0.9 2.8 -4.9 0 -7.7 2.1 -19.8 4.2 -24.2 2.8 -5.9 5.8 -7.2 17 -7.2 9.7 0 15.9 1.3 24.2 4.9 4.7 2.1 5.1 2.1 9.2 0.5 3.2 -1.2 5.8 -1.5 10.1 -1 3.2 0.4 7.2 0.6 8.8 0.5 3.4 -0.3 16.9 -0.3 23 0 2.2 0.1 7 -0.1 10.6 -0.5 5.2 -0.4 7.4 -0.2 9.9 1.1 3.1 1.6 3.4 1.6 8.4 -0.6 8.4 -3.6 14.6 -4.9 24.4 -4.9 10.2 0 13.8 1.2 16.6 5.4 2.5 3.9 4.6 14.2 4.6 22.9 0 7.3 0.1 7.7 2.3 7.7 2.4 0 6.4 2.3 8.4 5 0.7 0.8 1.3 3.8 1.3 6.6 0 3.6 0.4 5.4 1.5 5.7 0.8 0.4 2.7 2.5 4.2 4.8 2.4 3.7 2.8 5.2 2.9 12.5 0.1 7.3 0.4 8.6 2.7 11.3 3.4 4.1 4.7 8.9 4.7 18.1 0 5.5 -0.5 8.2 -1.7 10 -1.3 1.9 -1.7 4.8 -1.7 14.8 -0.1 12.3 -0.1 12.4 -2.9 14.8 -1.5 1.3 -3.7 2.4 -4.8 2.4 -1.7 0 -1.9 0.7 -1.9 6.4 0 5.9 -0.3 6.6 -2.9 8.9 l-2.9 2.4 1.4 5.9 c0.7 3.2 1.4 9.9 1.4 14.7 l0 8.9 4.8 5.3 c5.9 6.7 11 15.1 13.6 22.4 2.4 7 3.5 27.5 1.6 33 -1 3.3 -0.9 4.1 1 7.4 1.9 3.2 2.2 4.9 1.8 11.2 -0.4 8.6 -1.5 10.2 -8 11.8 -7.2 1.7 -27.6 1.9 -33.5 0.4 l-5.3 -1.4 0 5.2 c0 6.4 -2.4 9.9 -7.8 11.5 -6.1 1.8 -31.1 2.5 -37.1 1 -6.1 -1.4 -13.1 -7.3 -13.1 -11 0 -1.6 -0.4 -2.1 -1.6 -1.6 -0.9 0.3 -7.6 0.6 -14.9 0.6 l-13.3 0 -1 2.9 c-1.3 3.6 -6.4 7.6 -11.7 9 -5.3 1.4 -27.5 1.3 -34.7 -0.3z m45 -187.5 c2 0 4.6 0.4 5.7 0.8 2.4 1 5.5 -0.4 5.5 -2.4 0 -0.8 -1.3 -2.1 -3 -3 -1.6 -0.8 -3.4 -2.4 -4 -3.4 -1.6 -3 -1.2 -11.3 0.6 -13.9 l1.6 -2.3 -3.8 1.6 c-2.1 0.8 -4.5 2.1 -5.3 2.7 -11.1 8.3 -12.7 16.8 -4.8 25 l3.2 3.3 0.3 -4.2 c0.3 -4.2 0.4 -4.3 4 -4.2z m44.1 0.6 c3 -5.9 2.3 -9.9 -2.5 -15.6 -3 -3.4 -9.8 -8.1 -11.8 -8.1 -0.3 0 -0.1 1.2 0.4 2.6 1.3 3.3 1.3 8.7 0 11.6 -0.6 1.3 -2.7 3.3 -4.6 4.6 -2.9 1.9 -3.3 2.6 -2.3 3.8 0.9 1.1 2.6 1.3 7.5 0.8 l6.4 -0.7 0 4.3 c0 4.2 0 4.2 2.3 2.8 1.2 -0.9 3.3 -3.6 4.6 -6.1z m11.6 -36.7 c-1.7 -3.3 -6.8 -7 -9.8 -7 -0.9 0 -3.4 1.6 -5.5 3.6 -2.3 2.2 -2.9 3.3 -1.7 2.8 1.1 -0.4 4.3 -1 7.2 -1.2 4.7 -0.3 5.5 -0.1 8 2.5 3.5 3.5 3.9 3.4 1.8 -0.7z m-68.1 -1.8 c2.8 0.3 5.9 0.8 7 1.3 3.6 1.6 -0.3 -3.5 -4 -5.3 -3.4 -1.6 -3.7 -1.5 -7.1 0.3 -1.9 1.1 -4.4 3.6 -5.6 5.5 l-2.2 3.5 3.4 -2.8 c3 -2.5 4.1 -2.8 8.5 -2.5z"/>
 </g>
 <g fill="#ffffff">
  <path d="M198.5 402.9 c-2.2 -0.6 -5.6 -1.5 -7.6 -2 -4.4 -1.1 -10.7 -7.7 -11.6 -12 -0.5 -2.7 -0.9 -3 -3.2 -2.3 -4.5 1.3 -19.3 1.4 -26.1 0.3 -13 -2.3 -18 -7 -18 -17 0 -3.9 0.7 -7 2.5 -10.5 2.4 -4.8 2.4 -5 0.9 -9.1 -2.2 -5.6 -1.4 -20.2 1.5 -29.3 2.4 -7.6 7.8 -16.9 13.8 -23.9 4.2 -4.9 4.3 -5.1 4.3 -12.5 0 -4.1 0.7 -10.7 1.5 -14.6 l1.5 -7.2 -2.9 -3.3 c-2.7 -3.1 -4.8 -9.6 -3.6 -11.4 0.3 -0.5 -0.9 -1.9 -2.6 -3.2 -6.1 -4.3 -8.7 -16.1 -5.8 -25.9 1 -3.4 0.9 -4.1 -1.2 -7 -2.1 -2.7 -2.4 -4.3 -2.4 -11.3 0.1 -8.3 2 -14 6.3 -19 1.1 -1.2 1.5 -3.5 1.3 -8.1 -0.3 -7 1.1 -11.4 5.1 -16.1 1.8 -2.1 2.7 -4.6 3 -8.3 0.5 -5.6 3.5 -9.9 8.9 -12.7 2.4 -1.3 2.6 -2.1 3.2 -9.7 2 -28 16.9 -35.3 47 -23.3 6.3 2.6 6.6 2.6 9.8 1 2.5 -1.3 4.7 -1.6 9.8 -1.1 3.6 0.4 7.7 0.6 9.1 0.5 2.8 -0.2 18.5 -0.2 24 0 1.9 0.1 6.4 -0.1 9.9 -0.5 4.8 -0.4 7.2 -0.2 10 1.1 3.5 1.5 3.8 1.5 9.3 -0.9 6.2 -2.8 18.7 -5.6 24.5 -5.6 14.1 0 21.1 8.2 23.5 27.5 1.1 9 1.4 9.8 4 11.1 4.5 2.3 8.2 8.1 8.4 13.1 0.1 2.9 0.9 5.2 2.2 6.6 3.9 4.1 6.4 11.4 6.1 17.5 -0.3 4.9 0.1 6.3 2.8 10.5 5.8 8.9 6.9 21.7 2.4 27.7 -2 2.8 -2 3.3 -0.9 9.9 1.7 9.8 0 16.7 -5.1 21.4 -3.1 2.8 -3.9 4.4 -4.5 8.3 -0.4 3.3 -1.5 5.8 -3.5 7.9 -2.8 3 -2.8 3 -1.4 8 0.7 2.8 1.7 9.5 2 15 0.6 9.9 0.6 10 4.7 14.7 5.8 6.7 10.3 14.4 13.3 23 3.2 9.2 3.9 26.2 1.2 31.4 -1.5 3 -1.5 3.3 0.7 6.9 3.1 5.1 3.9 10.7 2.4 16.1 -1.7 6 -6.3 9.9 -13.7 11.5 -6.7 1.4 -20.7 1.8 -27.5 0.6 -4.6 -0.8 -4.6 -0.8 -5.3 2.3 -0.9 4.1 -5.9 9.7 -10.1 11.5 -5 2.1 -13.6 3 -25.8 2.7 -13.1 -0.3 -18.8 -2.3 -24.5 -8.8 l-3.9 -4.4 -12.1 0 -12.1 0 -4 4.4 c-6 6.5 -11.2 8.3 -25.5 8.9 -6.7 0.3 -13.8 0.1 -16 -0.4z m14.7 -7.1 c-2.2 -2.2 -1.5 -9.4 1.3 -12.5 l2.4 -2.8 -0.9 3.5 c-1.5 5.2 -1.2 8.5 0.9 11.1 1.7 2.2 2.1 2.2 7.4 1 3.5 -0.7 6.8 -2.3 9.2 -4.4 5 -4.4 5.4 -8.3 2.2 -21.7 -3.4 -14 -5.1 -23 -4.5 -23.5 0.3 -0.3 2.1 3 4.1 7.2 3.8 8.2 6.7 17.9 6.7 22.4 0 1.5 0.4 3.9 1 5.3 0.9 2.6 1.1 2.6 11.2 2.6 13.3 0 14.8 -0.4 14.8 -4.1 0 -5.9 3.2 -17.4 7.2 -26.1 2.3 -5 4.4 -8.6 4.6 -8 0.2 0.6 -1.3 8.1 -3.2 16.8 -2 8.7 -3.6 17.8 -3.6 20.2 0 3.9 0.5 5 4 8.3 2.9 2.7 5.4 4.1 9.6 5 5.5 1.2 5.7 1.2 7.5 -1 2.1 -2.6 2.4 -6.8 0.9 -12.1 l-0.9 -3.5 2.4 3 c3.3 4 4 7.8 2.2 11.5 l-1.5 3 4.7 0 c8.5 0 12.2 -5.1 10.2 -13.8 -0.5 -2.3 -0.7 -4.2 -0.5 -4.2 0.2 0 1.3 1.5 2.4 3.3 2.5 4 2.6 9.4 0.3 11.9 -1.7 1.9 -1.6 1.9 1.2 1.2 7.5 -1.8 10 -5.2 9.3 -12.6 -0.5 -4.3 -1.1 -5.7 -4.1 -8.4 l-3.5 -3.2 4.4 -8.5 c2.4 -4.6 6.6 -14 9.3 -20.8 2.7 -6.8 5.1 -13.1 5.5 -13.9 0.3 -0.8 0.3 0.8 0 3.5 -0.7 6.1 -5.6 21.7 -9.5 30.4 -3.9 8.7 -3.8 10.5 1.2 14 5.9 4.4 18.3 6.5 23 4.1 2.2 -1.2 2.6 -7 0.9 -11.6 -1.5 -4 -0.4 -4.1 1.9 -0.3 2.5 4 2.7 9.2 0.5 11.3 -1.4 1.5 -1.3 1.6 1.4 1.6 1.6 0 4.2 -1 5.7 -2.2 2.5 -2 2.7 -2.5 2.3 -8 -0.4 -5.2 -0.3 -5.7 0.8 -3.6 1.7 2.9 1.8 9 0.2 10.6 -2 2 1.6 1.5 4.2 -0.6 3 -2.5 3.8 -9.7 1.5 -14.2 -0.9 -1.8 -3.1 -4.6 -4.8 -6.2 -2.4 -2.1 -2.7 -2.8 -1.4 -2.8 0.9 0 2.6 -1.5 3.8 -3.2 1.8 -2.9 2 -4.6 1.6 -13.3 -0.6 -15 -5.1 -25.8 -15.9 -38 l-4.8 -5.3 0 -9 c0 -7.8 -2 -19 -4.5 -25.4 -0.5 -1.3 -0.2 -1.8 1.1 -1.8 1 0 2.8 -1 4.1 -2.2 2.8 -2.6 3.2 -9.1 0.7 -12.6 -1.5 -2.1 -1.4 -2.2 2 -2.2 2.2 0 4.5 -0.9 6.3 -2.4 2.4 -2.1 2.8 -3.2 3.1 -9.3 0.3 -5.6 0 -8 -1.7 -11.8 -2.5 -5.6 -2.5 -5.5 -0.7 -5.5 2.8 0 5.6 -5 5.6 -9.9 0 -7.5 -1.8 -12.2 -6.7 -17 -2.4 -2.4 -3.9 -4.7 -3.4 -5 1.9 -1.2 3.1 -6.3 2.5 -10.2 -0.8 -4.6 -5.4 -11.4 -8.4 -12.4 -1.5 -0.5 -1.9 -1.2 -1.4 -2.3 1.4 -3.6 1.6 -6.4 0.5 -8.6 -1.5 -2.7 -6.1 -5.6 -9 -5.6 -2 0 -2.1 -0.6 -2.1 -7.7 0 -8.7 -2.1 -19 -4.6 -22.9 -5 -7.5 -20.3 -7.3 -36.9 0.5 l-6.5 3 -4.2 -2.4 c-5.2 -3 -8.7 -3.1 -13.8 -0.5 -3.9 2 -4.1 2 -7.3 0.3 -4.4 -2.4 -16 -2.4 -20.5 0 -3.1 1.7 -3.5 1.7 -5.2 0.2 -3.2 -2.9 -8 -2.9 -13.3 -0.1 l-4.9 2.6 -6.6 -3.1 c-8.7 -4.2 -15.3 -5.9 -23 -5.9 -8 0 -11.4 1.8 -14 7.2 -2.5 5.1 -4.6 19.5 -3.7 24.9 0.6 3.6 0.5 3.9 -1.8 3.9 -1.3 0 -3.9 1 -5.8 2.3 -2.7 1.8 -3.5 3 -3.7 6.1 -0.2 2.1 0.1 4.3 0.7 4.9 1.6 1.6 1.3 2.5 -1 3.2 -3.1 1 -7.7 8.1 -8.4 13 -0.7 4.5 0.5 7.9 3.4 10.2 1.5 1.1 1.4 1.2 -0.1 1.3 -2.3 0 -7.6 5.5 -9.4 9.8 -3.3 8 -1.4 18.6 3.7 19.9 2.3 0.6 2.3 0.5 0 5.1 -5.6 11.1 -2.1 24.2 6.6 24.2 3.6 0 3.9 0.6 1.8 3.4 -3.5 4.6 -0.1 13.6 5.1 13.6 1.3 0 2.4 0.1 2.4 0.3 0 0.1 -0.9 2.6 -2 5.5 -2.2 5.8 -4.4 23.1 -3.4 27.5 0.5 2.3 -0.1 3.5 -3.5 7.2 -10.9 11.9 -16.1 23.5 -16.9 37.7 -0.5 10.5 0.5 14.8 4.1 17.3 2 1.4 2 1.5 -0.7 3.6 -3.3 2.6 -6.5 9.1 -6.6 13.1 0 3.1 4.4 8.8 6.8 8.8 1.2 0 1.3 -0.3 0.4 -1.2 -1.6 -1.6 -1.5 -7.7 0.2 -10.7 1.1 -2.1 1.2 -1.7 0.8 3.2 -0.4 5 -0.2 5.8 2.1 8.1 1.7 1.6 3.7 2.6 5.6 2.6 l3 0 -1.6 -2.8 c-2 -3.4 -1.2 -7 2.2 -10.9 l2.4 -2.8 -1.5 4.4 c-2.8 8.1 -0.4 12.1 7.1 12.1 10.4 0 21.5 -5.5 21.5 -10.6 0 -1.3 -1.1 -4.6 -2.4 -7.2 -3.8 -7.5 -7.7 -19 -9.7 -28.7 -1 -4.9 -1.7 -9 -1.6 -9.1 0.1 -0.2 2.9 6.3 6.1 14.4 3.2 8.1 7.7 18.5 10.1 23.2 l4.2 8.5 -2.4 1.8 c-3.8 2.9 -5.5 6.3 -5.5 11.2 0 6.2 2.7 9.3 9.5 10.9 l2.8 0.7 -2.1 -2.1 c-2.6 -2.6 -2.5 -6 0.1 -11.1 2.5 -4.9 3.1 -4.7 1.9 0.6 -1.1 4.9 -0.4 8.3 2.3 11.3 1.7 1.8 3.1 2.2 8.1 2.2 4.7 0 5.7 -0.3 4.8 -1.2z"/>
  <path d="M245.4 228 c-17.1 -3.6 -25.3 -14.8 -21.4 -29.2 1.4 -4.8 8.5 -11.1 15.9 -13.9 10.8 -4.2 29.4 -2.6 38.1 3.3 6.3 4.3 9.3 9.2 9.8 15.8 0.8 10.4 -4.6 17.8 -16.2 22.3 -5.8 2.2 -19.7 3.1 -26.2 1.7z m20.3 -5.1 c3.8 -1.4 7.3 -4.8 7.3 -7.2 0 -1.4 -0.4 -1.7 -1.7 -1.2 -4.3 1.6 -8.3 1.7 -10.7 0.2 -4.8 -3.2 -4.2 -8 1.4 -11.3 3.7 -2.3 5.4 -6.2 4.1 -9.6 -1.5 -3.9 -4.9 -5.8 -10.4 -5.8 -4 0 -5.3 0.5 -7.8 2.9 -4.6 4.6 -3.7 9.3 2.6 13 2.8 1.6 3.5 2.7 3.5 5.1 0 4.7 -3.3 7.3 -8.4 6.7 -2.2 -0.3 -4.9 -0.8 -5.8 -1.2 -1.2 -0.5 -1.8 -0.3 -1.8 0.8 0 2.5 4 6.6 7.3 7.6 4.5 1.3 17 1.3 20.4 0z"/>
  <path d="M213.2 182.8 c-3.3 -3.3 0.3 -13.4 5.8 -16.3 3.7 -1.9 10.3 -1.9 14 0 5.1 2.6 7.6 9.9 4.5 12.5 -1.3 1.1 -2.4 0.9 -6.5 -1 -5.8 -2.7 -8.4 -2.1 -12.1 2.9 -2.5 3.3 -3.8 3.8 -5.7 1.9z"/>
  <path d="M291.6 180.6 c-3.5 -4.7 -6.6 -5.4 -11.1 -2.7 -4.5 2.6 -6.1 2.6 -7.5 0 -1.7 -3 -0.5 -6.3 3.5 -9.8 7 -6.1 17.7 -3.4 21.6 5.4 1.7 3.9 1.8 4.9 0.7 7.2 -1.9 4 -4.1 3.9 -7.2 -0.1z"/>
 </g>
</svg>